# Blender 4.3.2
# www.blender.org
mtllib ability_developer.mtl
o ability_developer_block
v 0.738950 0.346949 0.286679
v 0.864100 0.421499 0.173128
v 1.015600 0.384149 0.193528
v 0.793350 0.227999 0.351629
v 0.495450 0.859749 -0.013071
v 0.495450 0.988199 -0.083271
v 0.752950 0.914549 -0.018772
v 0.666950 0.816999 0.034529
v 0.802300 0.645899 0.097828
v 0.926550 0.698749 0.068979
v 0.495450 0.227999 0.351629
v 0.495450 0.346949 0.286679
v 0.793350 2.420099 2.543779
v 0.495450 2.420099 2.543779
v 0.742350 0.783300 0.135328
v 0.626900 0.894099 0.076879
v 0.791400 0.660900 0.199878
v 0.713700 0.523000 0.272629
v 0.495450 0.932199 0.056778
v 0.495450 0.523000 0.272629
v 1.015600 2.578199 2.387579
v 0.738950 2.485049 2.424829
v 0.864100 2.598599 2.350229
v 0.495450 2.784849 1.912029
v 0.666950 2.737249 1.954779
v 0.752950 2.790499 1.857179
v 0.495450 2.855000 1.783578
v 0.926550 2.702749 2.073029
v 0.802300 2.673899 2.125829
v 0.495450 2.485049 2.424829
v 0.626900 2.646549 1.949028
v 0.742350 2.588150 2.059829
v 0.791400 2.523549 2.182179
v 0.713700 2.450799 2.320129
v 0.495450 2.666649 1.910928
v 0.495450 2.450799 2.320129
v 0.252000 0.346949 0.286679
v 0.197550 0.227999 0.351629
v -0.024650 0.384149 0.193528
v 0.126800 0.421499 0.173128
v 0.323950 0.816999 0.034529
v 0.237950 0.914549 -0.018772
v 0.064400 0.698749 0.068979
v 0.188600 0.645899 0.097828
v -0.024650 2.578199 2.387579
v 0.064400 2.702749 2.073029
v 0.197550 2.420099 2.543779
v 0.364050 0.894099 0.076879
v 0.248600 0.783300 0.135328
v 0.199550 0.660900 0.199878
v 0.277200 0.523000 0.272629
v 0.252000 2.485049 2.424829
v 0.126800 2.598599 2.350229
v 0.237950 2.790499 1.857179
v 0.323950 2.737249 1.954779
v 0.188600 2.673899 2.125829
v 0.248600 2.588150 2.059829
v 0.364050 2.646549 1.949028
v 0.199550 2.523549 2.182179
v 0.277200 2.450799 2.320129
v 1.167100 0.747549 0.020228
v 1.167100 2.751499 2.024229
v 1.256150 2.626999 2.338779
v 1.256150 0.432949 0.144728
v 0.197550 0.333750 0.457379
v -0.024650 0.489949 0.299279
v 0.064400 0.804500 0.174778
v 0.237950 1.020350 0.086978
v 0.495450 0.333750 0.457379
v 0.495450 1.093950 0.022529
v 0.752950 1.020350 0.086978
v 0.793350 0.333750 0.457379
v 0.926550 0.804500 0.174778
v 1.015600 0.489949 0.299279
v 0.197550 2.295199 2.418879
v -0.024650 2.453300 2.262729
v 0.064400 2.577849 1.948129
v 0.495450 2.295199 2.418879
v 0.237950 2.665649 1.732328
v 0.495450 2.730099 1.658679
v 0.752950 2.665649 1.732328
v 0.926550 2.577849 1.948129
v 0.793350 2.295199 2.418879
v 1.015600 2.453300 2.262729
v 1.102400 2.795449 2.285479
v 1.222800 2.673649 2.220979
v 1.205150 2.698299 2.158579
v 1.084700 2.820249 2.222879
v 0.964250 2.649999 2.206179
v 0.982050 2.625099 2.269079
v 0.420600 1.528150 1.829128
v 0.420600 1.427200 1.639678
v 0.420600 0.182000 1.987429
v 0.420600 0.182000 2.176879
v 0.611100 1.528150 1.829128
v 0.611100 0.182000 2.176879
v 0.611100 0.182000 1.987429
v 0.611100 1.427200 1.639678
v 0.142000 -0.003800 2.452079
v 0.142000 0.105950 2.452079
v 0.142000 0.105950 1.712229
v 0.142000 -0.003850 1.712229
v 0.885700 -0.003850 1.712229
v 0.885700 -0.003800 2.452079
v 0.885700 0.105950 2.452079
v 0.885700 0.105950 1.712229
v 0.650550 1.783000 1.831928
v 0.650550 1.589900 1.895529
v 0.650550 1.265750 1.636878
v 0.650550 1.458850 1.573279
v 0.377200 1.783000 1.831928
v 0.377200 1.589900 1.895529
v 0.377200 1.458850 1.573279
v 0.377200 1.265750 1.636878
v 0.407000 0.105950 1.974079
v 0.407000 0.182000 1.974079
v 0.624250 0.182000 1.974079
v 0.624250 0.105950 1.974079
v 0.624250 0.182000 2.190229
v 0.624250 0.105950 2.190229
v 0.407000 0.182000 2.190229
v 0.407000 0.105950 2.190229
v 1.013850 -0.003800 1.001679
v 1.013850 -0.003851 0.001679
v 1.013850 0.281699 0.001679
v 1.013850 0.281700 1.001679
v 0.013850 -0.003800 1.001679
v 0.013850 0.281700 1.001679
v 0.013850 -0.003851 0.001679
v 0.013850 0.281699 0.001679
v 0.752950 0.914599 -0.018772
v 0.237950 0.914599 -0.018772
vn -0.2256 -0.3986 -0.8890
vn -0.4144 -0.4440 -0.7944
vn 0.3315 -0.9233 -0.1941
vn 0.1690 -0.9829 0.0734
vn -0.0000 -0.9919 -0.1267
vn -0.0002 0.3588 -0.9334
vn 0.0349 -0.4842 -0.8743
vn -0.5113 -0.8023 -0.3081
vn -0.7569 -0.5030 -0.4172
vn 0.0187 -0.1722 -0.9849
vn -0.0000 -0.8464 -0.5326
vn -0.0000 -0.2170 -0.9762
vn 0.4061 -0.0040 0.9138
vn -0.0000 0.1423 0.9898
vn -0.5810 -0.6744 -0.4556
vn -0.4897 -0.8124 0.3165
vn -0.7189 -0.3287 -0.6125
vn -0.0919 -0.2951 -0.9510
vn -0.0000 -0.7238 -0.6900
vn -0.0000 -0.2788 -0.9604
vn 0.1545 0.5387 0.8282
vn -0.2808 0.9093 0.3072
vn -0.4159 0.8088 0.4157
vn -0.0000 0.5083 0.8612
vn -0.3271 0.5913 0.7371
vn 0.3409 0.9376 -0.0689
vn -0.0000 0.9929 -0.1187
vn 0.0805 0.9967 0.0049
vn -0.6462 0.5637 0.5145
vn -0.0000 0.9987 -0.0511
vn -0.3178 0.3220 0.8918
vn -0.4421 0.6255 0.6429
vn -0.7325 0.6253 0.2691
vn -0.1362 0.9812 0.1366
vn -0.0000 0.7462 0.6657
vn -0.0000 0.9964 0.0845
vn 0.2256 -0.3986 -0.8890
vn -0.1691 -0.9829 0.0734
vn -0.5829 -0.6862 -0.4351
vn 0.4143 -0.4440 -0.7945
vn 0.5112 -0.8023 -0.3083
vn -0.0349 -0.4842 -0.8743
vn -0.4845 -0.1278 -0.8654
vn 0.7567 -0.5031 -0.4174
vn -0.6332 0.6084 0.4784
vn -0.4403 0.8944 0.0785
vn -0.4062 -0.0040 0.9138
vn 0.4897 -0.8125 0.3163
vn 0.5809 -0.6744 -0.4558
vn 0.7188 -0.3288 -0.6126
vn 0.0920 -0.2951 -0.9510
vn 0.2808 0.9093 0.3072
vn 0.4158 0.8089 0.4157
vn -0.3409 0.9376 -0.0689
vn 0.3271 0.5914 0.7371
vn 0.6460 0.5638 0.5146
vn 0.4420 0.6256 0.6428
vn 0.3178 0.3221 0.8918
vn 0.7324 0.6255 0.2691
vn 0.1363 0.9812 0.1366
vn 0.3898 0.4182 -0.8205
vn 0.2987 0.9213 -0.2488
vn 0.7571 0.2873 0.5867
vn 0.4853 -0.6003 -0.6357
vn 0.1553 -0.4622 -0.8731
vn 0.2604 -0.9577 -0.1224
vn 0.2317 -0.4517 -0.8616
vn 0.0265 -0.4843 -0.8745
vn -0.0000 -0.4857 -0.8741
vn -0.0000 -0.4965 -0.8680
vn -0.0265 -0.4843 -0.8745
vn -0.1552 -0.4622 -0.8731
vn -0.2317 -0.4517 -0.8616
vn -0.1579 -0.9443 0.2889
vn -0.1559 -0.8657 -0.4757
vn -0.1235 -0.9093 0.3974
vn -0.1373 -0.8746 -0.4650
vn -0.0000 -0.8740 -0.4859
vn -0.0127 -0.8820 -0.4711
vn -0.0000 -0.8680 -0.4966
vn 0.0126 -0.8820 -0.4711
vn 0.1372 -0.8746 -0.4650
vn 0.1559 -0.8657 -0.4757
vn 0.1907 -0.9659 0.1753
vn -0.1580 -0.9442 0.2889
vn 0.1907 -0.9659 0.1752
vn 0.2606 -0.9577 -0.1224
vn -0.0276 0.9268 0.3746
vn 0.7266 0.6840 0.0647
vn 0.7267 0.6839 0.0648
vn -0.0277 0.9267 0.3747
vn -0.7621 0.4986 0.4130
vn -0.8944 0.1119 0.4331
vn -0.4473 -0.2406 -0.8614
vn -0.8944 -0.1203 -0.4308
vn -0.4473 0.2237 0.8660
vn 0.7071 0.1769 0.6846
vn 0.7071 -0.1902 -0.6810
vn 0.7071 -0.1902 -0.6811
vn -0.8164 -0.4083 0.4083
vn -0.4084 0.4081 0.8165
vn -0.6667 0.6666 -0.3334
vn -0.3334 -0.6667 -0.6666
vn 0.8165 -0.4083 -0.4082
vn 0.3334 -0.6666 0.6667
vn 0.6667 0.6666 0.3334
vn 0.4084 0.4081 -0.8165
vn 0.8944 0.1397 0.4248
vn 0.2734 -0.1700 0.9467
vn 0.9030 -0.4229 -0.0759
vn 0.4473 -0.2798 -0.8495
vn -0.4472 0.2798 0.8495
vn -0.7508 -0.1166 0.6502
vn -0.8944 -0.1399 -0.4248
vn -0.4652 -0.8713 -0.1564
vn -0.4473 -0.0000 -0.8944
vn -0.8165 0.4081 -0.4084
vn 0.3335 0.6666 -0.6667
vn 0.8944 0.0002 -0.4473
vn 0.8165 0.4082 0.4083
vn 0.4473 -0.0000 0.8944
vn -0.3335 0.6666 0.6667
vn -0.8944 0.0002 0.4473
vn 0.8164 -0.4083 0.4083
vn 0.4082 -0.8165 -0.4083
vn 0.6666 0.3334 -0.6666
vn 0.3335 0.6667 0.6666
vn -0.3335 -0.6667 0.6666
vn -0.8164 0.4083 0.4083
vn -0.6667 -0.3334 -0.6666
vn -0.4083 0.8164 -0.4083
vn 0.6568 0.5332 -0.5332
vn -0.0000 0.3588 -0.9334
vn -0.6569 0.5332 -0.5332
vt 0.093800 0.053200
vt 0.135000 0.093900
vt 0.185300 0.081200
vt 0.111800 0.012800
vt 0.012400 0.230400
vt 0.012400 0.274000
vt 0.097700 0.243600
vt 0.069400 0.210500
vt 0.114200 0.159100
vt 0.155400 0.177000
vt 0.012400 0.013200
vt 0.012400 0.053500
vt 0.659300 0.008400
vt 0.659300 0.861800
vt 0.579300 0.861800
vt 0.579300 0.008400
vt 0.197800 0.234900
vt 0.238100 0.190600
vt 0.180800 0.179200
vt 0.154300 0.216500
vt 0.197800 0.140700
vt 0.271600 0.133400
vt 0.263200 0.083100
vt 0.213700 0.093000
vt 0.139900 0.272800
vt 0.192800 0.276800
vt 0.213700 0.026500
vt 0.263200 0.026500
vt 0.012400 0.208400
vt 0.055700 0.195600
vt 0.094000 0.158500
vt 0.084500 0.071200
vt 0.110300 0.117500
vt 0.012400 0.071200
vt 0.748700 0.008400
vt 0.748700 0.861800
vt 0.841700 0.044700
vt 0.841700 0.824300
vt 0.416100 0.045900
vt 0.416100 0.825400
vt 0.509100 0.861800
vt 0.509100 0.008400
vt 0.339000 0.825400
vt 0.339000 0.045800
vt 0.316800 0.333600
vt 0.237800 0.333600
vt 0.236000 0.223900
vt 0.315000 0.223900
vt 0.092600 0.592500
vt 0.058000 0.634100
vt 0.071900 0.687200
vt 0.098900 0.723900
vt 0.139100 0.592500
vt 0.139100 0.742000
vt 0.179200 0.723900
vt 0.185500 0.592500
vt 0.206200 0.687200
vt 0.220100 0.634100
vt 0.743300 0.584900
vt 0.743300 0.857700
vt 0.710600 0.857700
vt 0.710600 0.584900
vt 0.247200 0.215400
vt 0.319600 0.215500
vt 0.319400 0.191800
vt 0.247000 0.191600
vt 0.693200 0.874300
vt 0.665900 0.925400
vt 0.329800 0.925300
vt 0.329800 0.874200
vt 0.332100 0.934500
vt 0.332100 0.985900
vt 0.694900 0.985900
vt 0.694900 0.934500
vt 0.669000 0.985900
vt 0.669000 0.934500
vt 0.266100 0.784500
vt 0.295700 0.784500
vt 0.295700 0.984700
vt 0.266000 0.984700
vt 0.034200 0.552600
vt 0.206900 0.552600
vt 0.206900 0.380800
vt 0.034200 0.380800
vt 0.251200 0.513900
vt 0.297400 0.484200
vt 0.298300 0.372300
vt 0.252100 0.401900
vt 0.111100 0.289200
vt 0.058900 0.289200
vt 0.058900 0.363000
vt 0.111100 0.363000
vt 0.109000 0.289200
vt 0.056800 0.289200
vt 0.056800 0.363000
vt 0.109000 0.363000
vt 0.196500 0.363000
vt 0.196500 0.289200
vt 0.271000 0.649500
vt 0.271000 0.667200
vt 0.321500 0.667200
vt 0.321500 0.649500
vt 0.304200 0.927500
vt 0.324700 0.927500
vt 0.324700 0.869200
vt 0.304200 0.869200
vt 0.271000 0.717400
vt 0.321500 0.717400
vt 0.715700 0.875300
vt 0.985700 0.875300
vt 0.985700 0.952400
vt 0.715700 0.952400
vt 0.257000 0.804400
vt 0.024700 0.804400
vt 0.024700 0.572200
vt 0.257000 0.572200
vt 0.913600 0.072400
vt 0.913600 0.800300
vt 0.987700 0.072400
vt 0.987700 0.800300
s 1
usemtl Material
f 1/1/1 2/2/2 3/3/3
f 1/1/1 3/3/3 4/4/4
f 5/5/5 6/6/6 7/7/7
f 5/5/5 7/7/7 8/8/8
f 2/2/2 9/9/9 10/10/10
f 2/2/2 10/10/10 3/3/3
f 11/11/11 12/12/12 1/1/1
f 11/11/11 1/1/1 4/4/4
f 10/10/10 9/9/9 8/8/8
f 10/10/10 8/8/8 7/7/7
f 4/13/4 13/14/13 14/15/14
f 4/13/4 14/15/14 11/16/11
f 8/17/8 9/18/9 15/19/15
f 8/17/8 15/19/15 16/20/16
f 17/21/17 2/22/2 1/23/1
f 17/21/17 1/23/1 18/24/18
f 5/25/5 8/20/8 16/17/16
f 5/25/5 16/17/16 19/26/19
f 9/18/9 2/22/2 17/21/17
f 9/18/9 17/21/17 15/19/15
f 18/23/18 1/24/1 12/27/12
f 18/23/18 12/27/12 20/28/20
f 19/29/19 16/30/16 15/31/15
f 19/29/19 15/31/15 18/32/18
f 15/31/15 17/33/17 18/32/18
f 19/29/19 18/32/18 20/34/20
f 3/35/3 21/36/21 13/14/13
f 3/35/3 13/14/13 4/13/4
f 22/1/22 13/4/13 21/3/21
f 22/1/22 21/3/21 23/2/23
f 24/5/24 25/8/25 26/7/26
f 24/5/24 26/7/26 27/6/27
f 23/2/23 21/3/21 28/10/28
f 23/2/23 28/10/28 29/9/29
f 14/11/14 13/4/13 22/1/22
f 14/11/14 22/1/22 30/12/30
f 28/10/28 26/7/26 25/8/25
f 28/10/28 25/8/25 29/9/29
f 25/17/25 31/20/31 32/19/32
f 25/17/25 32/19/32 29/18/29
f 33/21/33 34/24/34 22/23/22
f 33/21/33 22/23/22 23/22/23
f 24/25/24 35/26/35 31/17/31
f 24/25/24 31/17/31 25/20/25
f 29/18/29 32/19/32 33/21/33
f 29/18/29 33/21/33 23/22/23
f 34/23/34 36/28/36 30/27/30
f 34/23/34 30/27/30 22/24/22
f 35/29/35 36/34/36 34/32/34
f 35/29/35 34/32/34 32/31/32
f 34/32/34 33/33/33 32/31/32
f 35/29/35 32/31/32 31/30/31
f 37/1/37 38/4/38 39/3/39
f 37/1/37 39/3/39 40/2/40
f 5/5/5 41/8/41 42/7/42
f 5/5/5 42/7/42 6/6/6
f 40/2/40 39/3/39 43/10/43
f 40/2/40 43/10/43 44/9/44
f 11/11/11 38/4/38 37/1/37
f 11/11/11 37/1/37 12/12/12
f 43/10/43 42/7/42 41/8/41
f 43/10/43 41/8/41 44/9/44
f 43/37/43 39/35/39 45/36/45
f 43/37/43 45/36/45 46/38/46
f 38/13/38 11/16/11 14/15/14
f 38/13/38 14/15/14 47/14/47
f 41/17/41 48/20/48 49/19/49
f 41/17/41 49/19/49 44/18/44
f 50/21/50 51/24/51 37/23/37
f 50/21/50 37/23/37 40/22/40
f 5/25/5 19/26/19 48/17/48
f 5/25/5 48/17/48 41/20/41
f 44/18/44 49/19/49 50/21/50
f 44/18/44 50/21/50 40/22/40
f 51/23/51 20/28/20 12/27/12
f 51/23/51 12/27/12 37/24/37
f 19/29/19 20/34/20 51/32/51
f 19/29/19 51/32/51 49/31/49
f 51/32/51 50/33/50 49/31/49
f 19/29/19 49/31/49 48/30/48
f 39/35/39 38/13/38 47/14/47
f 39/35/39 47/14/47 45/36/45
f 52/1/52 53/2/53 45/3/45
f 52/1/52 45/3/45 47/4/47
f 24/5/24 27/6/27 54/7/54
f 24/5/24 54/7/54 55/8/55
f 53/2/53 56/9/56 46/10/46
f 53/2/53 46/10/46 45/3/45
f 14/11/14 30/12/30 52/1/52
f 14/11/14 52/1/52 47/4/47
f 46/10/46 56/9/56 55/8/55
f 46/10/46 55/8/55 54/7/54
f 55/17/55 56/18/56 57/19/57
f 55/17/55 57/19/57 58/20/58
f 59/21/59 53/22/53 52/23/52
f 59/21/59 52/23/52 60/24/60
f 24/25/24 55/20/55 58/17/58
f 24/25/24 58/17/58 35/26/35
f 56/18/56 53/22/53 59/21/59
f 56/18/56 59/21/59 57/19/57
f 60/23/60 52/24/52 30/27/30
f 60/23/60 30/27/30 36/28/36
f 35/29/35 58/30/58 57/31/57
f 35/29/35 57/31/57 60/32/60
f 57/31/57 59/33/59 60/32/60
f 35/29/35 60/32/60 36/34/36
f 61/39/61 62/40/62 63/41/63
f 61/39/61 63/41/63 64/42/64
f 28/43/28 62/40/62 61/39/61
f 28/43/28 61/39/61 10/44/10
f 10/45/10 61/46/61 64/47/64
f 10/45/10 64/47/64 3/48/3
f 3/16/3 64/42/64 63/41/63
f 3/16/3 63/41/63 21/15/21
f 28/45/28 21/48/21 63/47/63
f 28/45/28 63/47/63 62/46/62
f 65/49/65 66/50/66 67/51/67
f 65/49/65 67/51/67 68/52/68
f 69/53/69 65/49/65 68/52/68
f 69/53/69 68/52/68 70/54/70
f 69/53/69 70/54/70 71/55/71
f 69/53/69 71/55/71 72/56/72
f 72/56/72 71/55/71 73/57/73
f 72/56/72 73/57/73 74/58/74
f 75/49/75 76/50/76 77/51/77
f 75/49/75 77/51/77 78/53/78
f 78/53/78 77/51/77 79/52/79
f 78/53/78 79/52/79 80/54/80
f 78/53/78 80/54/80 81/55/81
f 78/53/78 81/55/81 82/57/82
f 83/56/83 78/53/78 82/57/82
f 83/56/83 82/57/82 84/58/84
f 74/59/85 84/60/86 76/61/76
f 74/59/85 76/61/76 66/62/87
f 85/63/88 86/64/89 87/65/90
f 85/63/88 87/65/90 88/66/91
f 85/65/88 88/64/91 89/63/92
f 85/65/88 89/63/92 90/66/92
f 91/67/93 92/68/94 93/69/95
f 91/67/93 93/69/95 94/70/96
f 95/67/97 96/70/97 97/69/98
f 95/67/97 97/69/98 98/68/99
f 94/71/96 96/72/97 95/73/97
f 94/71/96 95/73/97 91/74/93
f 92/75/94 98/76/99 97/71/98
f 92/75/94 97/71/98 93/72/95
f 99/77/100 100/78/101 101/79/102
f 99/77/100 101/79/102 102/80/103
f 102/81/103 103/82/104 104/83/105
f 102/81/103 104/83/105 99/84/100
f 104/80/105 105/79/106 100/78/101
f 104/80/105 100/78/101 99/77/100
f 103/80/104 106/79/107 105/78/106
f 103/80/104 105/78/106 104/77/105
f 102/80/103 101/79/102 106/78/107
f 102/80/103 106/78/107 103/77/104
f 105/84/106 106/81/107 101/82/102
f 105/84/106 101/82/102 100/83/101
f 107/85/108 108/86/109 109/87/110
f 107/85/108 109/87/110 110/88/111
f 111/89/112 112/90/113 108/91/109
f 111/89/112 108/91/109 107/92/108
f 113/88/114 114/87/115 112/86/113
f 113/88/114 112/86/113 111/85/112
f 110/93/111 109/94/110 114/95/115
f 110/93/111 114/95/115 113/96/114
f 108/97/109 112/98/113 114/93/115
f 108/97/109 114/93/115 109/96/110
f 115/99/116 116/100/117 117/101/118
f 115/99/116 117/101/118 118/102/119
f 118/103/119 117/104/118 119/105/120
f 118/103/119 119/105/120 120/106/121
f 120/99/121 119/100/120 121/101/122
f 120/99/121 121/101/122 122/102/123
f 122/106/123 121/105/122 116/104/117
f 122/106/123 116/104/117 115/103/116
f 117/107/118 116/108/117 121/101/122
f 117/107/118 121/101/122 119/100/120
f 123/109/124 124/110/125 125/111/126
f 123/109/124 125/111/126 126/112/127
f 127/109/128 123/110/124 126/111/127
f 127/109/128 126/111/127 128/112/129
f 124/113/125 123/114/124 127/115/128
f 124/113/125 127/115/128 129/116/130
f 126/115/127 125/116/126 130/113/131
f 126/115/127 130/113/131 128/114/129
f 129/109/130 127/110/128 128/111/129
f 129/109/130 128/111/129 130/112/131
f 125/112/126 124/109/125 129/110/130
f 125/112/126 129/110/130 130/111/131
f 131/117/132 26/118/26 28/38/28
f 131/117/132 28/38/28 10/37/10
f 6/119/133 27/120/27 26/118/26
f 6/119/133 26/118/26 131/117/132
f 132/117/134 43/37/43 46/38/46
f 132/117/134 46/38/46 54/118/54
f 6/119/133 132/117/134 54/118/54
f 6/119/133 54/118/54 27/120/27
