# Blender 4.3.0
# www.blender.org
mtllib data_terminal.mtl
o data_terminal
v -1.000000 -1.001968 -0.147370
v 1.000000 -1.001968 -0.147370
v -0.777778 -0.779746 -0.147370
v 0.777778 -0.779746 -0.147370
v -0.777778 0.775809 -0.147370
v 0.777778 0.775809 -0.147370
v -1.000000 -1.001968 0.113669
v 1.000000 -1.001968 0.113669
v -0.777778 -0.779746 0.113669
v 0.777778 -0.779746 0.113669
v -0.777778 0.775809 0.113669
v 0.777778 0.775809 0.113669
v -1.000000 0.998032 -0.147370
v 1.000000 0.998032 -0.147370
v -1.000000 0.998032 0.113669
v 1.000000 0.998032 0.113669
v 0.000000 0.998032 -0.147370
v 0.000000 0.998032 0.113669
v 0.000000 0.943716 -0.016850
v 0.500000 0.998032 -0.147370
v 0.500000 0.998032 0.113669
v -1.000000 1.139209 0.048409
v 1.000000 1.139209 -0.082110
v -0.500000 0.998032 -0.147370
v -0.500000 0.998032 0.113669
v -1.000000 1.139209 -0.082110
v 1.000000 1.139209 0.048409
v 0.000000 0.998032 0.048409
v 0.000000 0.998032 -0.082110
v 0.500000 1.139209 -0.016850
v -0.500000 1.139209 -0.016850
v -0.500000 1.139209 -0.082110
v 0.500000 1.139209 -0.082110
v 0.500000 1.139209 0.048409
v -0.500000 1.139209 0.048409
v -0.839590 1.132224 0.321289
v 0.856509 1.132224 0.321289
v 0.749220 0.989576 0.198249
v -0.750780 0.989576 0.198249
vn 0.2357 -0.2357 0.9428
vn 0.4082 -0.4082 0.8165
vn -0.4082 -0.4082 0.8165
vn -0.3333 -0.6667 0.6666
vn -0.6666 0.3333 -0.6667
vn -0.3333 0.6666 0.6667
vn -0.7071 -0.7071 -0.0000
vn 0.8729 -0.4365 0.2182
vn -0.9701 -0.2425 -0.0000
vn -0.3333 -0.6666 0.6667
vn 0.2358 -0.2357 0.9428
vn 0.6667 -0.6667 -0.3333
vn 0.2722 0.1361 0.9526
vn 0.1562 0.3123 -0.9370
vn 0.6666 -0.6667 -0.3333
vn -0.3929 0.3297 -0.8584
vn -0.3929 0.3298 -0.8584
vn -0.6121 0.7404 0.2778
vn -0.6120 0.5629 -0.5555
vn -0.5396 0.1131 0.8343
vn -0.5396 0.1132 0.8343
vn 0.1537 0.8727 0.4635
vn 0.0636 0.9926 -0.1032
vn 0.9188 0.3856 0.0847
vn 0.0635 0.9926 -0.1031
vn -0.1031 0.9041 -0.4147
vn -0.0000 0.8671 0.4982
vn 0.4243 0.1781 -0.8878
vn 0.8729 -0.4364 0.2183
vn -0.0413 0.9963 0.0756
vn 0.1031 0.9041 0.4147
vn -0.0000 0.9792 -0.2027
vn -0.1290 0.8932 0.4308
vn -0.1031 0.9923 -0.0692
vn -0.1032 0.9041 -0.4146
vn -0.0000 0.8671 0.4981
vn -0.1283 0.9132 -0.3868
vn 0.1031 0.9923 0.0692
vn -0.0000 1.0000 -0.0000
vn -0.3237 0.9215 -0.2147
vn 0.1060 0.9292 -0.3541
vn 0.3237 0.9215 0.2147
vn 0.1032 0.9041 0.4146
vn -0.0000 0.9793 -0.2026
vn 0.9188 0.3856 0.0848
vn 0.7647 0.5429 -0.3471
vn 0.5104 0.7245 0.4633
vn 0.4244 0.1780 -0.8878
vn -0.0000 0.9142 -0.4053
vn -0.0000 0.6531 -0.7572
vt 0.000000 0.000000
vt 0.055762 0.053662
vt 0.055762 0.429293
vt 0.000000 0.482954
vt 0.197987 0.858600
vt 0.131990 0.858600
vt 0.131990 0.482969
vt 0.197987 0.482969
vt 0.131993 0.965922
vt 0.065996 0.965922
vt 0.065996 0.482968
vt 0.501509 0.482954
vt 0.445747 0.429293
vt 0.445747 0.053662
vt 0.501509 0.000000
vt 0.442792 0.053662
vt 0.498141 0.000000
vt 0.049498 1.000000
vt 0.016499 1.000000
vt 0.000000 0.965909
vt 0.235438 0.845183
vt 0.235438 0.724445
vt 0.197995 0.724444
vt 0.197995 0.845183
vt 0.501509 0.120739
vt 0.501509 0.241477
vt 0.501509 0.362216
vt 0.000000 0.120739
vt 0.000000 0.241477
vt 0.000000 0.362216
vt 0.200015 0.965913
vt 0.197999 0.965913
vt 0.236967 0.629396
vt 0.237082 0.750134
vt 0.253626 0.750134
vt 0.253466 0.629396
vt 0.197993 0.603693
vt 0.235989 0.603693
vt 0.200825 0.482955
vt 0.286562 0.629397
vt 0.286562 0.750136
vt 0.254527 0.629395
vt 0.349413 0.919504
vt 0.436801 0.859323
vt 0.436801 0.617846
vt 0.349414 0.557288
vt 0.308552 0.941078
vt 0.308552 0.531509
s 1
usemtl Material
f 2/1/1 4/2/2 3/3/3
f 2/1/1 3/3/3 1/4/4
f 11/5/5 5/6/6 3/7/3
f 11/5/5 3/7/3 9/8/7
f 8/7/8 7/9/9 1/10/10
f 8/7/8 1/10/10 2/11/11
f 10/5/12 4/6/2 6/7/13
f 10/5/12 6/7/13 12/8/14
f 10/8/12 9/5/7 3/6/3
f 10/8/12 3/6/3 4/7/2
f 5/5/6 11/6/5 12/7/14
f 5/5/6 12/7/14 6/8/13
f 8/12/8 10/13/15 9/14/7
f 8/12/8 9/14/7 7/15/9
f 9/16/7 7/17/9 15/1/16
f 9/16/7 15/1/16 11/2/5
f 7/11/9 15/10/17 22/18/18
f 7/11/9 22/18/18 26/19/19
f 7/11/9 26/19/19 13/20/20
f 7/11/9 13/20/20 1/4/10
f 3/3/3 5/13/6 13/12/21
f 3/3/3 13/12/21 1/4/4
f 35/21/22 22/22/18 15/23/17
f 35/21/22 15/23/17 25/24/23
f 2/12/1 14/4/24 6/3/13
f 2/12/1 6/3/13 4/13/2
f 12/13/14 11/14/5 15/15/16
f 12/13/14 15/15/16 25/25/25
f 12/13/14 25/25/25 18/26/26
f 12/13/14 18/26/26 21/27/27
f 12/13/14 21/27/27 16/12/28
f 10/16/12 12/2/14 16/1/28
f 10/16/12 16/1/28 8/17/29
f 6/2/13 14/1/24 20/28/30
f 6/2/13 20/28/30 17/29/31
f 6/2/13 17/29/31 24/30/32
f 6/2/13 24/30/32 13/4/21
f 6/2/13 13/4/21 5/3/6
f 34/21/33 28/31/34 18/32/35
f 34/21/33 18/32/35 21/24/36
f 33/33/37 29/34/38 19/35/39
f 33/33/37 19/35/39 30/36/40
f 29/34/38 32/33/41 31/36/42
f 29/34/38 31/36/42 19/35/39
f 17/8/43 24/37/44 32/38/41
f 17/8/43 32/38/41 29/39/38
f 24/37/44 13/23/20 26/22/19
f 24/37/44 26/22/19 32/38/41
f 14/23/45 20/37/30 33/38/37
f 14/23/45 33/38/37 23/22/46
f 20/37/30 17/8/43 29/39/38
f 20/37/30 29/39/38 33/38/37
f 27/22/47 34/21/33 21/24/36
f 27/22/47 21/24/36 16/23/48
f 30/33/40 19/34/39 28/35/34
f 30/33/40 28/35/34 34/36/33
f 28/31/34 35/21/22 25/24/23
f 28/31/34 25/24/23 18/32/35
f 19/34/39 31/33/42 35/36/22
f 19/34/39 35/36/22 28/35/34
f 32/40/41 26/41/19 22/35/18
f 32/40/41 22/35/18 35/36/22
f 27/42/47 23/40/46 33/41/37
f 27/42/47 33/41/37 34/35/33
f 38/43/49 20/44/30 24/45/44
f 38/43/49 24/45/44 39/46/49
f 38/46/49 39/43/49 36/47/50
f 38/46/49 36/47/50 37/48/50
f 8/4/8 2/11/11 14/10/45
f 8/4/8 14/10/45 23/18/46
f 8/4/8 23/18/46 27/19/47
f 8/4/8 27/19/47 16/20/48
