<?xml version="1.0" encoding="UTF-8"?>
<svg xmlns="http://www.w3.org/2000/svg" xmlns:xlink="http://www.w3.org/1999/xlink" viewBox="0 0 158.4 196.72">
  <defs>
    <style>
      .cls-1 {
        fill: url(#_未命名的渐变_446);
      }

      .cls-2 {
        fill: url(#_未命名的渐变_441);
      }

      .cls-3 {
        fill: #fff;
      }

      .cls-4 {
        fill: url(#_未命名的渐变_425);
      }

      .cls-5 {
        fill: #4691ff;
      }

      .cls-6 {
        fill: url(#_未命名的渐变_216);
      }

      .cls-7 {
        fill: none;
        stroke: url(#_未命名的渐变_8);
        stroke-miterlimit: 10;
      }

      .cls-8 {
        fill: url(#_未命名的渐变_276);
      }

      .cls-9 {
        fill: url(#_未命名的渐变_274);
      }
    </style>
    <linearGradient id="_未命名的渐变_216" data-name="未命名的渐变 216" x1="121.48" y1="196.4" x2="121.48" y2="68.53" gradientUnits="userSpaceOnUse">
      <stop offset="0" stop-color="#fcd6f2"/>
      <stop offset=".11" stop-color="#fcc4f2"/>
      <stop offset=".35" stop-color="#fca5f2"/>
      <stop offset=".59" stop-color="#fc8ef2"/>
      <stop offset=".81" stop-color="#fc80f2"/>
      <stop offset="1" stop-color="#fc7cf2"/>
    </linearGradient>
    <linearGradient id="_未命名的渐变_425" data-name="未命名的渐变 425" x1="81.51" y1="95.24" x2="81.51" y2="20.44" gradientUnits="userSpaceOnUse">
      <stop offset="0" stop-color="#9dc7ff"/>
      <stop offset=".12" stop-color="#8abbff"/>
      <stop offset=".35" stop-color="#6ca9ff"/>
      <stop offset=".58" stop-color="#579bff"/>
      <stop offset=".8" stop-color="#4a93ff"/>
      <stop offset="1" stop-color="#4691ff"/>
    </linearGradient>
    <linearGradient id="_未命名的渐变_441" data-name="未命名的渐变 441" x1="130.95" y1="58.88" x2="130.95" y2="23.55" gradientUnits="userSpaceOnUse">
      <stop offset="0" stop-color="#5fa1ff"/>
      <stop offset=".18" stop-color="#579cff"/>
      <stop offset=".6" stop-color="#4a93ff"/>
      <stop offset="1" stop-color="#4691ff"/>
    </linearGradient>
    <linearGradient id="_未命名的渐变_446" data-name="未命名的渐变 446" x1="42.12" y1="196.56" x2="42.12" y2="68.36" gradientUnits="userSpaceOnUse">
      <stop offset="0" stop-color="#ffd894"/>
      <stop offset=".48" stop-color="#fbb85d"/>
      <stop offset="1" stop-color="#f7931e"/>
    </linearGradient>
    <linearGradient id="_未命名的渐变_274" data-name="未命名的渐变 274" x1="39.62" y1="196.72" x2="39.62" y2="68.52" gradientUnits="userSpaceOnUse">
      <stop offset="0" stop-color="#ffd8a9"/>
      <stop offset=".07" stop-color="#ffd39f"/>
      <stop offset=".17" stop-color="#ffc786"/>
      <stop offset=".31" stop-color="#ffb45c"/>
      <stop offset=".48" stop-color="#ff9a24"/>
      <stop offset=".55" stop-color="#ff8c06"/>
      <stop offset="1" stop-color="#ff8c06"/>
    </linearGradient>
    <linearGradient id="_未命名的渐变_276" data-name="未命名的渐变 276" x1="121.48" y1="196.4" x2="121.48" y2="68.53" gradientUnits="userSpaceOnUse">
      <stop offset="0" stop-color="#f9cfe4"/>
      <stop offset=".07" stop-color="#f9c8e4"/>
      <stop offset=".18" stop-color="#f9b6e4"/>
      <stop offset=".3" stop-color="#f999e4"/>
      <stop offset=".43" stop-color="#f970e4"/>
      <stop offset=".46" stop-color="#f965e4"/>
      <stop offset="1" stop-color="#f964e4"/>
    </linearGradient>
    <linearGradient id="_未命名的渐变_8" data-name="未命名的渐变 8" x1="84.57" y1="132.46" x2="158.4" y2="132.46" gradientUnits="userSpaceOnUse">
      <stop offset="0" stop-color="#fff"/>
      <stop offset="0" stop-color="#000" stop-opacity="0"/>
    </linearGradient>
  </defs>
  <g id="main">
    <path class="cls-6" d="M103.19,100.75c1.21,2.81,1.93,5.88,2.07,9.08.52,11.72-9.48,21.83-20.69,23.31,0,22.65,0,55.02,0,63.27l73.83-42.62v-85.25l-55.21,32.22Z"/>
    <path class="cls-4" d="M81.54,20.44L7.81,63.01l55.17,32.15s0,0,0,0c4.48-5.51,11.41-9.14,18.53-9.14,7.68,0,14.19,3.66,18.4,9.23,19.21-11.21,46.63-27.21,55.29-32.27-.42-.24-6.6-4.11-6.6-4.11h-11.78v-6.5c-7.13-4.12-15.51-8.95-23.55-13.6v8.34s-11.78,0-11.78,0v-15.14s-19.97-11.53-19.97-11.53ZM113.28,70.63l-11.78.04v-11.82l11.78.02v11.76ZM113.28,58.88v-11.78s11.78,0,11.78,0v11.76"/>
    <circle class="cls-3" cx="81.76" cy="110.11" r="16.95"/>
    <rect class="cls-5" x="101.51" y="23.55" width="11.78" height="11.78"/>
    <polygon class="cls-2" points="136.83 23.55 125.06 23.55 125.06 35.33 113.28 35.33 113.28 47.1 125.06 47.1 125.06 58.88 136.83 58.88 136.83 47.1 136.83 35.33 148.61 35.33 148.61 23.55 136.83 23.55"/>
    <path class="cls-1" d="M58.26,109.94c-.15-3.34.56-6.54,1.9-9.45L5.12,68.36v85.46l74.01,42.73v-63.27c-11.82-1.32-20.34-11.48-20.87-23.35Z"/>
    <rect class="cls-5" x="125.06" width="11.78" height="11.78"/>
  </g>
  <g id="_1" data-name="1">
    <path class="cls-9" d="M12.76,158.33l-.87-.5h0s.87.5.87.5ZM25.01,124.6l.47-.84c-.41.03-.51.52-.47.84ZM15,159.62s0,0,0,0l2.46,1.42.07.04s0,0,0-.01l-2.53-1.45ZM39.48,173.76s.05-.02.07-.03l-22.02-12.64,21.96,12.68ZM54.2,134.74c-.25-.22-1.64-.79-1.74-.94-.2-.29.13-1.41-.14-1.79-.11-2.58-2.4-3.3-4.65-3.1-.65.06-1.35.34-2,.44-.94.14-2.79.51-3.64.48-.07,0-1.31-.54-1.36-.59-.15-.16-.15-.93-.21-1.2-.3-1.29-.76-2.75-1.3-3.95-.19-.43-1.65-2.95-1.49-3.16.47.34.99.64,1.51.88,1.17.55,1.22.61,2.52.34.08-.04.08-.07,0-.09-.16-.07-1.3-.76-1.13-.94.95.21,2.26.88,2.82-.28-1.64.17-3.23-1.24-3.47-2.82.9.73,1.32,1.71,2.63,1.78-.23-.87-.56-1.73-.71-2.62-.02-.1-.1-.28.1-.2.25.1,1,1.38,1.17,1.69.1.16.18.2.19,0,.05-1.05-.66-2.6-1.29-3.45-.24-.32-1.26-1.06-.8-1.32.55-.32,1.22-.2,1.81-.68.05-.11-.02-.14-.19-.09-.09,0-.19,0-.28,0-.17.07-.52.12-.47-.09.31-.12,1.32-.51,1.5-.71.11-.12.12-.17.1-.33-1.46.49-3.69.36-5.01-.48-.58-.37-1.43-1.61-2.18-1.59-.23,0-.36.23-.54.19-.38-.1-.69-1.05-1.62-1.12-.71-.06-.56-.09-1.21-.28-1.3-.38-3.17-.42-4.49-.07-.32.09-1.98.99-2.14.82-.06-1.36.63-2.45-1.32-1.64-.6.25-1.59,1.13-2.02,1.64-.16.19-.39.72-.43.75-.5.35-1.36-2.13-2.1-1.58-.29.54-.74.97-1.03,1.5-.1.18-.18.64-.27.72-.07.06-.8.32-1.01.44-5.04,2.88-7.62,8.84-6.93,14.54.34,2.83,1.74,4.83,4.52,5.62,1.18.34,1.98.18,3.17.16-.3.54-.28,1.2-.44,1.76-.13.45-.38.74-.54,1.15-.4,1.04-1.39,3.37-1.45,4.38-.04.62.76.9.89,1.16.2.41-.41,1.85-.56,2.34-.24.82-.7,2.9-1.04,3.58-.07.15-.7.81-.93,1.23-1.72,3.16-1.97,6.38-2.9,9.77-.07.25-.14.53-.23.83l3.11,1.79c1.05-3.18,2.66-6.18,3.88-9.28.66-1.68,1.09-3.44,1.53-5.19.13-.02.14.17.16.26.18.88.25,1.8.42,2.67.07.37.34.78.36,1.15.01.26-.3,2.17-.39,2.43-.17.49-1.15,1.22-1.36,2.02-.16.61.16,1.21.05,1.83-.08.42-.77,1.2-.84,1.7-.07.46.27.68.17,1-.09.29-.66,1.11-.85,1.51-.21.44-.41.89-.61,1.34l22.02,12.66c.2-.11,1.43-.8,1.47-.87.06-.14-.22-.83-.31-1.01-1.3-2.52-3.26-4.7-5.32-6.6-.03-.78-.67-1.89-.7-2.59-.02-.49.2-1.18.09-1.72h.94c.11-.23-.14-1.26-.09-1.31.02-.02.39-.05.56-.15.66-.38,1.52-1.98,1.5-2.72-.02-.66-1.46-1.19-1.57-1.51-.17-.54.24-1.19.33-1.7.08-.42.26-1.48.22-1.85-.08-.75-1.59-1.27-1.79-2.07l.28-4.3c.03-.12,1.7-.77,1.97-.96.22-.15,1.59-1.43,1.6-1.59.01-.22-.38-1.11-.52-1.36-.65-1.17-2.05-2.22-2.59-3.42-.36-.8-.24-1.96-.6-2.88-.21-.54-.56-.8-.82-1.25-.15-.26-.18-.7-.45-1.01-.03-.07-.09-.15-.16-.22.09.06.17.1.25.13,1.21.81,4.7,1.56,5.39,2.73.5.85.65,1.6,1.37,2.48.72.87,1.12,1.15,2.25.61.11,1.59,1.13,4.03,2.44,4.98.1.07.21.16.32.22,0,.02.01.03.06.05.45.1.76.19,1.22,0,.35-.14.52-.55.91-.64.27-.06.71-.03.97.07.05.02.09.26.28.19.04-.03-.17-.23-.19-.28-.17-.36-.19-.78-.71-.84-.78-.1-1.2.83-1.45,1.41-.07,0-.18.1-.33.09-.19,0-.38-.05-.56-.08-.08-.12-.27-.21-.33-.29-.86-1.11-.44-1.82-.57-3.04-.08-.72-.57-2.15-.84-2.87.01-.04.01-.07.02-.1.07-.16.34-.33.45-.37.35-.13.79-.19,1.03.14.42.55,0,.94,1.03.71.11-.02.18-.05.28-.09.18-.08.39-.18.47-.37l-.56.28c-.09-.01-.19,0-.28,0-.32-.36-.21-.46-.39-.79-.36-.66-1.18-.24-1.68.03-.16.09-.29.22-.47.28-.74-1.91-1.56-2.49-3.15-3.57-.18-.12-.77-.6-.84-.75-.1-.22.19-1.62.39-1.68.13-.04,2.03.35,2.43.37,1.13.06,2.93-.15,4.01-.49.59-.19,2.19-1.15,2.65-1.1.09,0,.83.32.93.39.79.49,1.41,1.91,1.84,2.71-.01,1.41.38,1.52,1.6,1.69.23.03.53.18.84.09.02-.13-.41-.19-.47-.19ZM18.72,117.09c.13-.12.18-.07.09.09-.89,1.54-1.44,3.73-1.41,5.49.01.66.23,1.44.28,2.11-.66-.24-1.52-.39-1.59-1.17-.23-2.32,1.16-4.86,2.63-6.52ZM19.13,131.07c-1.21-.55-2.11-.96-3.09-1.87-.91-.85-2.58-3.11-2.58-4.37v-1.83l.81,1.49c.67.79,1.33,1.33,2.29,1.74.39.16,1.63.46,1.83.61.1.07.73,1.2.9,1.44.14.2.72.79.73.95,0,.11-.79,1.81-.89,1.83ZM25.01,125.59c-.05,0-.65-.35-.92-.41-.62-.13-1.4-.09-1.99.12-.54.19-.62.61-1.18.14-.42-.35-1.04-2.03-.97-2.56.46-1.28,1.42-2.29,2.09-3.45.58,1.66,2.61,2.44,3.33,3.94-.36.12-.51.17-.75.47-.05.04-.06.07,0,.09.25-.18.53-.38.84-.38.15.5.2,1.97-.46,2.03ZM33.08,132.29c-.06-.07-.41-.24-.28-.38.13-.13.31.22.38.28.03.08.09.16.16.24-.09-.06-.18-.11-.26-.14ZM38.62,132.11c-1.55-.64-3.52-.9-4.64-2.26-.67-.81-1.06-1.89-1.46-2.85.67.09,1.12.23,1.78-.05.62,1.81,2.52,3.32,4.32,3.85v1.31ZM38.85,128.53c-.18-.07-.47-.11-.63-.2-.59-.33-1.27-2.7-1.72-3.36-.06-.28.65-1.07.62-1.5l1.6,3.14c.09.3.5,1.84.13,1.92ZM42.37,137.51c.13.13.49.87.38.98-.74.09-1.15-.76-1.61-1.16-.59-.52-1.6-.7-1.4-1.65l2.62,1.84Z"/>
  </g>
  <g id="_2" data-name="2">
    <g>
      <path class="cls-8" d="M150.96,142.35c-.11-.14-.11-.37-.19-.46-.07-.08-.29-.09-.42-.23-.14-.15-.15-.38-.3-.57-.22-.29-.6-.54-.88-.78-.35-1.51-.33-3.34-1.01-4.73-.58-1.19-1.44-1.45-2.65-1.7-.21-.04-.46.04-.67-.02-.04-.01-.61-.47-.63-.51-.06-.09.36-1.76.31-2.04l-.35-3.18c.33.36.43.91.68,1.37.31.58.97,1.32.97,2.07v1.44l.33-.67c.1-.25.46-1.18.46-1.37v-1.74s-.19-.54.04-.22c.43.6.33.84,1,1.39.04-.03.04-.06,0-.09-.65-1.25-.8-2.78-.78-4.18.17-.05.17.07.24.15.52.51.93,1.3,1.31,1.91l.44,1.08c.29-1.42.16-2.87,0-4.3l.09-.83.87,3.05c.16-.18.15-.62.09-.87-.02-.63-.19-1.25-.35-1.87l.17-.04c1.1,1.54,1.79,3.22,2.27,5.05.21.03.14,0,.18-.12.11-.28.04-.53.08-.79.03-.21.15-.33.17-.61.11-1.12-.13-2.21-.44-3.27l.99.96c.2.33.34.68.48,1.04.07,0,.1-.05.09-.17-.58-2.77-1.43-3.1-3.04-5.09-.22-.28-.33-.63-.61-.87.24-.09.48.11.74.13.35.03.75.01,1.09-.04-.23-.35-.76-.54-1.01-.82-.78-.9-1.81-1.74-2.51-2.71-1.94-2.67-2.58-4.4-5.61-6.14-1.31-.75-1.12-.49-2.46-.75-.81-.16-1.05-.54-2.09-.4-.36.05-.85.33-1.16.33-.09,0-.71-.21-.77-.26-.12-.08-.04-.51-.2-.63-.23-.18-1.28-.3-1.33-.34-.14-.15.34-1.22-.61-1.52-.21-.07-1.74-.36-1.83-.3.24.6.74.98,1.39,1.05-.1.39.14.59-.18.91-.79.78-2.42.48-3.43.57-1.12.11-2.76,1.4-3.9,1.93-3.96,1.85-9.22,3.67-11.67,7.56-1.23,1.96.53,2.83,1.65,4.09.65.72,1.21,1.54,1.83,2.27.28.33,1.27,1.16,1.39,1.48.1.26.02.53.07.8.3,1.65.81,2.56,1.46,4.02.21.47.34,1.17.54,1.55.48.95,2.62,2.29,3.61,2.83.58.32,2.41.9,2.69,1.23.06.07.13.12.13.22,0,.14-1.6,1.73-1.87,2.14-1.09,1.67-.89,2.65-1.1,4.47-.15,1.32-.76,2.01-1.29,3.15-.5,1.06-.93,2.18-1.2,3.32-.13.53-.13,1.38-.34,1.84-.2.46-1.53,1.61-1.95,2.14-.65.81-1.61,2.06-1.48,3.13.08.69.75.99.22,1.87-.33.54-1.59,1.61-1.58,2.3,0,.27.23.53.13.87-.06.18-.7.87-.87,1.13-2.15,3.22-5.2,6.46-6.78,9.93-.37.81-1.01,2.19-1.27,3-.07.22-.14.43-.02.65.13.24,1.48.6,1.79.93.48.52-.09.97.08,1.22.03.05.76.52.92.65.18.15.37.3.56.46l26.21-15.13c0-.32.04-.61.14-.8.15-.29,1.69-.89,2.2-1.45,1.31-1.46.86-2.86.1-4.46-.26-.55-1.11-1.67-1.24-2.07-.04-.13-.13-1.37-.11-1.51.1-.53,1.3-1.92,1.63-2.48.34-.6.59-1.31.92-1.93.38-.73.76-1.48,1.22-2.17.51.52.45,1.23.61,1.83.14.51.57.36.65,1.26.2,2.18-.56,3.73-.69,5.74-.11,1.6.07,3.16.32,4.72l3.9-2.25c.14-2.03.5-3.96.48-6.04-.01-1.29.01-2.59,0-3.88.28.03.5-.06.75-.16,1.09-.43,3.49-1.84,4.29-2.67.74-.77.74-1.1.24-1.98-.7-1.26-1.54-1.94-2.33-2.97ZM130.16,129.95c-.1-.29-.29-.81-.52-1.01-.25-.21-.82-.21-.92-.38-.16-.27.11-.78-.3-1.18-.17-.17-.99-.61-1.23-.69-.38-.12-1.07-.09-1.27-.21-.17-.11-.43-.6-.6-.79-.49-.54-1.3-1.35-1.88-1.78-.34-.25-.79-.41-1.08-.66-.87-.74-1.6-2.14-2.46-2.93-.08-.14-.13-.22-.06-.38.05-.11.82-.98.97-1.13,1.53-1.52,4.7-3.26,6.68-4.2.89-.42,1.43-.69,2.41-.2-.9,1.04-2.28,3.04-2.27,4.44,0,.69.33,1.98.7,2.57.14.22.25.44.52.52.07-.07-.27-.47-.35-.52v-.09l-.09-.17c-.37-1.56.28-3.51,1.3-4.7-.08.65-.38,1.2-.43,1.87-.16,1.85-.02,5.39,1.22,6.83.18.09.41.23.44.44.03.64.22,1.45.16,2.04-.02.22-.7,2.5-.95,2.32ZM130.42,130.03c.48-.61.98-1.24,1.22-2,.13-.02.11.16.13.26.18.81.17,1.68.57,2.44-.72-.08-1.15-.72-1.91-.7Z"/>
      <path class="cls-7" d="M150.96,142.35c-.11-.14-.11-.37-.19-.46-.07-.08-.29-.09-.42-.23-.14-.15-.15-.38-.3-.57-.22-.29-.6-.54-.88-.78-.35-1.51-.33-3.34-1.01-4.73-.58-1.19-1.44-1.45-2.65-1.7-.21-.04-.46.04-.67-.02-.04-.01-.61-.47-.63-.51-.06-.09.36-1.76.31-2.04l-.35-3.18c.33.36.43.91.68,1.37.31.58.97,1.32.97,2.07v1.44l.33-.67c.1-.25.46-1.18.46-1.37v-1.74s-.19-.54.04-.22c.43.6.33.84,1,1.39.04-.03.04-.06,0-.09-.65-1.25-.8-2.78-.78-4.18.17-.05.17.07.24.15.52.51.93,1.3,1.31,1.91l.44,1.08c.29-1.42.16-2.87,0-4.3l.09-.83.87,3.05c.16-.18.15-.62.09-.87-.02-.63-.19-1.25-.35-1.87l.17-.04c1.1,1.54,1.79,3.22,2.27,5.05.21.03.14,0,.18-.12.11-.28.04-.53.08-.79.03-.21.15-.33.17-.61.11-1.12-.13-2.21-.44-3.27l.99.96c.2.33.34.68.48,1.04.07,0,.1-.05.09-.17-.58-2.77-1.43-3.1-3.04-5.09-.22-.28-.33-.63-.61-.87.24-.09.48.11.74.13.35.03.75.01,1.09-.04-.23-.35-.76-.54-1.01-.82-.78-.9-1.81-1.74-2.51-2.71-1.94-2.67-2.58-4.4-5.61-6.14-1.31-.75-1.12-.49-2.46-.75-.81-.16-1.05-.54-2.09-.4-.36.05-.85.33-1.16.33-.09,0-.71-.21-.77-.26-.12-.08-.04-.51-.2-.63-.23-.18-1.28-.3-1.33-.34-.14-.15.34-1.22-.61-1.52-.21-.07-1.74-.36-1.83-.3.24.6.74.98,1.39,1.05-.1.39.14.59-.18.91-.79.78-2.42.48-3.43.57-1.12.11-2.76,1.4-3.9,1.93-3.96,1.85-9.22,3.67-11.67,7.56-1.23,1.96.53,2.83,1.65,4.09.65.72,1.21,1.54,1.83,2.27.28.33,1.27,1.16,1.39,1.48.1.26.02.53.07.8.3,1.65.81,2.56,1.46,4.02.21.47.34,1.17.54,1.55.48.95,2.62,2.29,3.61,2.83.58.32,2.41.9,2.69,1.23.06.07.13.12.13.22,0,.14-1.6,1.73-1.87,2.14-1.09,1.67-.89,2.65-1.1,4.47-.15,1.32-.76,2.01-1.29,3.15-.5,1.06-.93,2.18-1.2,3.32-.13.53-.13,1.38-.34,1.84-.2.46-1.53,1.61-1.95,2.14-.65.81-1.61,2.06-1.48,3.13.08.69.75.99.22,1.87-.33.54-1.59,1.61-1.58,2.3,0,.27.23.53.13.87-.06.18-.7.87-.87,1.13-2.15,3.22-5.2,6.46-6.78,9.93-.37.81-1.01,2.19-1.27,3-.07.22-.14.43-.02.65.13.24,1.48.6,1.79.93.48.52-.09.97.08,1.22.03.05.76.52.92.65.18.15.37.3.56.46l26.21-15.13c0-.32.04-.61.14-.8.15-.29,1.69-.89,2.2-1.45,1.31-1.46.86-2.86.1-4.46-.26-.55-1.11-1.67-1.24-2.07-.04-.13-.13-1.37-.11-1.51.1-.53,1.3-1.92,1.63-2.48.34-.6.59-1.31.92-1.93.38-.73.76-1.48,1.22-2.17.51.52.45,1.23.61,1.83.14.51.57.36.65,1.26.2,2.18-.56,3.73-.69,5.74-.11,1.6.07,3.16.32,4.72l3.9-2.25c.14-2.03.5-3.96.48-6.04-.01-1.29.01-2.59,0-3.88.28.03.5-.06.75-.16,1.09-.43,3.49-1.84,4.29-2.67.74-.77.74-1.1.24-1.98-.7-1.26-1.54-1.94-2.33-2.97ZM130.16,129.95c-.1-.29-.29-.81-.52-1.01-.25-.21-.82-.21-.92-.38-.16-.27.11-.78-.3-1.18-.17-.17-.99-.61-1.23-.69-.38-.12-1.07-.09-1.27-.21-.17-.11-.43-.6-.6-.79-.49-.54-1.3-1.35-1.88-1.78-.34-.25-.79-.41-1.08-.66-.87-.74-1.6-2.14-2.46-2.93-.08-.14-.13-.22-.06-.38.05-.11.82-.98.97-1.13,1.53-1.52,4.7-3.26,6.68-4.2.89-.42,1.43-.69,2.41-.2-.9,1.04-2.28,3.04-2.27,4.44,0,.69.33,1.98.7,2.57.14.22.25.44.52.52.07-.07-.27-.47-.35-.52v-.09l-.09-.17c-.37-1.56.28-3.51,1.3-4.7-.08.65-.38,1.2-.43,1.87-.16,1.85-.02,5.39,1.22,6.83.18.09.41.23.44.44.03.64.22,1.45.16,2.04-.02.22-.7,2.5-.95,2.32ZM130.42,130.03c.48-.61.98-1.24,1.22-2,.13-.02.11.16.13.26.18.81.17,1.68.57,2.44-.72-.08-1.15-.72-1.91-.7Z"/>
    </g>
  </g>
</svg>